{
    "asset" : {
        "generator" : "Khronos glTF Blender I/O v1.1.46",
        "version" : "2.0"
    },
    "scene" : 0,
    "scenes" : [
        {
            "name" : "Scene",
            "nodes" : [
                0
            ]
        }
    ],
    "nodes" : [
        {
            "mesh" : 0,
            "name" : "Text",
            "rotation" : [
                0.7071067690849304,
                0,
                0,
                0.7071067690849304
            ]
        }
    ],
    "animations" : [
        {
            "channels" : [
                {
                    "sampler" : 0,
                    "target" : {
                        "node" : 0,
                        "path" : "rotation"
                    }
                }
            ],
            "name" : "TextAction.001",
            "samplers" : [
                {
                    "input" : 4,
                    "interpolation" : "LINEAR",
                    "output" : 5
                }
            ]
        }
    ],
    "meshes" : [
        {
            "name" : "Text",
            "primitives" : [
                {
                    "attributes" : {
                        "POSITION" : 0,
                        "NORMAL" : 1,
                        "TEXCOORD_0" : 2
                    },
                    "indices" : 3
                }
            ]
        }
    ],
    "accessors" : [
        {
            "bufferView" : 0,
            "componentType" : 5126,
            "count" : 19386,
            "max" : [
                1.8345173597335815,
                0.10999999940395355,
                0.24249257147312164
            ],
            "min" : [
                -1.817500114440918,
                -0.10999999940395355,
                -0.6920000314712524
            ],
            "type" : "VEC3"
        },
        {
            "bufferView" : 1,
            "componentType" : 5126,
            "count" : 19386,
            "type" : "VEC3"
        },
        {
            "bufferView" : 2,
            "componentType" : 5126,
            "count" : 19386,
            "type" : "VEC2"
        },
        {
            "bufferView" : 3,
            "componentType" : 5123,
            "count" : 95532,
            "type" : "SCALAR"
        },
        {
            "bufferView" : 4,
            "componentType" : 5126,
            "count" : 101,
            "max" : [
                4.166666666666667
            ],
            "min" : [
                0
            ],
            "type" : "SCALAR"
        },
        {
            "bufferView" : 5,
            "componentType" : 5126,
            "count" : 101,
            "type" : "VEC4"
        }
    ],
    "bufferViews" : [
        {
            "buffer" : 0,
            "byteLength" : 232632,
            "byteOffset" : 0
        },
        {
            "buffer" : 0,
            "byteLength" : 232632,
            "byteOffset" : 232632
        },
        {
            "buffer" : 0,
            "byteLength" : 155088,
            "byteOffset" : 465264
        },
        {
            "buffer" : 0,
            "byteLength" : 191064,
            "byteOffset" : 620352
        },
        {
            "buffer" : 0,
            "byteLength" : 404,
            "byteOffset" : 811416
        },
        {
            "buffer" : 0,
            "byteLength" : 1616,
            "byteOffset" : 811820
        }
    ],
    "buffers" : [
        {
            "byteLength" : 813436,
            "uri" : "data:application/octet-stream;base64,"
        }
    ]
}
